<svg version="1.2" xmlns="http://www.w3.org/2000/svg" viewBox="0 0 1869 474" width="1869" height="474">
	<title>New Project</title>
	<defs>
		<linearGradient id="g1" x2="1" gradientUnits="userSpaceOnUse" gradientTransform="matrix(-1862.9,0,0,-375.446,1864.819,380.402)">
			<stop offset="0" stop-color="#ec1c24"/>
			<stop offset="1" stop-color="#262261"/>
		</linearGradient>
	</defs>
	<style>
		.s0 { fill: url(#g1) } 
		.s1 { fill: #000000 } 
	</style>
	<g id="&lt;Group&gt;">
		<g id="MICROGRAMMA-D-EXTENDED-BOLD">
			<g id="&lt;Group&gt;">
				<path id="&lt;Compound Path&gt;" fill-rule="evenodd" class="s0" d="m10 252.6h107.4q2.1 0 3.5 1 1.3 1.1 1.9 3.3 0.5 2.1 0.5 3.7 0 1.6 0 3.2 0 19.4 14.2 23.1 14.3 3.8 33.1 4.9 1 0 1.8 0 0.9 0 1.4 0l51.6 0.5q18.2 0 36.2-0.5 18-0.5 36.3-1.6c0.7 0 1.9 0 2.7 0q1 0 2.1 0 8-0.6 14.8-1.1 6.7-0.5 12.1-3.2 5.3-2.2 8.5-6.7 3.3-4.6 3.3-14.8 0-17.2-13.2-21.8-13.1-4.5-31.9-4.5h-17.8q-44.6 0-89.7-0.6-45.1-0.5-90.2-3.2-55.3-3.7-76-30.3-20.7-26.6-20.7-78.7 0-40.8 12.6-69.3 12.7-28.5 58.3-40.3h-0.5q15-3.8 37-5.9 22.1-2.1 45.2-3.2 22.5-1.1 43.7-1.4 21.2-0.2 36.3-0.2l76.3 1q0.5 0 0.8 0 0.2 0 0.8 0 8.6 0 17.2 0.3 8.5 0.3 17.7 0.8 25.2 2.2 48.9 11 23.6 8.9 38.6 34.1 4.3 8.1 6.7 16.4 2.5 8.3 3.5 16.9 1.1 8.1 1.6 16.4 0.6 8.3 0.6 15.8 0 1.7 0 3 0 1.4 0 2.4 0 2.2-1.4 3.8-1.3 1.6-4 1.6h-106.9q-2.1 0-3.5-1.4-1.3-1.3-1.8-3.4-1.1-17.2-10.2-22.9-9.2-5.6-26.4-6.1-13.4-0.6-26.6-0.6-13.1 0-26 0-8.6 0-16.7 0.3-8 0.3-16.6 0.3-7 0.5-14.2 0.8-7.3 0.2-14.8 0.2-4.8 0.6-10.2 0.8-5.4 0.3-10.8 0.3h0.6q-7 0.5-13.7 1.6-6.7 1.1-11.6 3.8-4.3 2.1-6.9 5.9-2.7 3.7-2.7 10.2 0 18.8 14.7 22.5 14.8 3.8 33.1 4.3 1.6 0 3.2 0 1.6 0 2.7 0 1 0 1.9 0 0.8 0 1.3 0l73 1.1 72 0.6q31.2 0 56.7 4 25.5 4 43.8 16.4 18.8 12.9 27.9 35.7 9.1 22.8 9.1 58.3 0 69.3-31.7 90.2c-21.1 14-52.6 22.4-94.5 25.2q-23.6 1.7-47 2.5-23.4 0.8-46.5 0.8-11.8 0.5-23.3 0.5-11.6 0-23.4 0-18.2 0-36.5-0.3c-12.2-0.2-24.5-0.6-37.1-1.3q-25.2-1.6-47-5.1-21.7-3.5-37.3-13.7-16.6-10.7-25-30.1-8.3-19.3-8.3-50.5v-21.5q0-2.6 1.6-4 1.6-1.3 3.8-1.3zm840.1 60.1h-225l-33.9 61.8q-0.5 1.1-1.9 1.9-1.3 0.8-2.9 1.3l-121.4-0.5q-2.7 0-4.3-2.2-1.6-2.1-1.1-4.3 0.6-0.5 0.6-1l199.8-358.3q1-1.1 2.1-1.9 1.1-0.8 2.7-0.8h147.2q1.6 0 2.9 0.8 1.4 0.8 1.9 1.9l195.5 358.3q0 0.5 0.6 1 0.5 2.2-1.1 4.3-1.6 2.2-4.3 2.7l-120.3-0.5q-1.6 0-2.7-0.8-1.1-0.8-2.2-1.4zm-108.4-223.9q-0.6-1.7-1.9-2.5-1.4-0.8-3-0.8-1.6 0-2.7 0.8-1 0.8-2.1 2.5l-76.8 141.8q0 0.5-0.6 1-0.5 2.7 1.1 4.9 1.6 2.1 4.3 2.1h153.6q2.7 0 4.3-2.1 1.6-2.2 1.1-4.9-0.5-0.5-0.5-1zm300.2 283.5v-358.2q0-2.7 1.7-4 1.6-1.4 3.7-1.4h399.6q2.7 0 4.1 1.4 1.3 1.3 1.3 4v81.6q0 2.2-1.3 3.8-1.4 1.6-4.1 1.6h-285.2v50.5h265.9q2.7 0 4 1.3 1.4 1.4 1.4 4.1v70.9q0 2.1-1.4 3.7-1.3 1.6-4 1.6h-265.9v52.7h285.2q2.7 0 4.1 1.3 1.3 1.4 1.3 4v81.1q0 2.2-1.3 3.5-1.4 1.4-4.1 1.9l-399.6-0.5q-2.1 0-3.7-1.4-1.7-1.3-1.7-3.5zm575.3-358.2v263.2h242.3q2.7 0 4 1.3 1.4 1.4 1.4 4v89.7q0 2.2-1.4 3.5-1.3 1.4-4 1.9l-356.7-0.5q-2.1 0-3.7-1.4-1.6-1.3-1.6-3.5v-358.2q0-2.7 1.6-4 1.6-1.4 3.7-1.4h109.1q2.7 0 4 1.4 1.3 1.3 1.3 4z"/>
			</g>
		</g>
		<path id="Montserrat Semi bold 00000024717653292031646380000015445314815984434321 " fill-rule="evenodd" class="s1" d="m9.8 461.6l3.3-7.4c4.1 3.3 10.6 5.6 16.9 5.6 8 0 11.4-2.8 11.4-6.7 0-11-30.5-3.8-30.5-22.8 0-8.3 6.6-15.3 20.7-15.3 6.1 0 12.6 1.6 17 4.5l-3 7.4c-4.6-2.7-9.6-4-14.1-4-7.9 0-11.2 3.1-11.2 6.9 0 11 30.5 3.8 30.5 22.7 0 8.2-6.7 15.2-20.8 15.2-8 0-16-2.5-20.2-6.1zm50-17v-28.9h9.5v28.6c0 10.5 4.8 15.1 13.1 15.1 8.2 0 12.9-4.6 12.9-15.1v-28.6h9.4v28.9c0 15-8.4 23.1-22.4 23.1-14.1 0-22.5-8.1-22.5-23.1zm53.9 17l3.3-7.4c4.1 3.3 10.7 5.6 17 5.6 7.9 0 11.3-2.8 11.3-6.7 0-11-30.5-3.8-30.5-22.8 0-8.3 6.6-15.3 20.7-15.3 6.2 0 12.6 1.6 17.1 4.5l-3 7.4c-4.6-2.7-9.7-4-14.2-4-7.9 0-11.1 3.1-11.1 6.9 0 11 30.4 3.8 30.4 22.7 0 8.2-6.7 15.2-20.7 15.2-8 0-16-2.5-20.3-6.1zm60.1-37.8h-17v-8.1h43.6v8.1h-17v43.2h-9.6zm64.5 31.4h-25.7l-5.1 11.8h-9.8l23.1-51.3h9.4l23.2 51.3h-10zm-3.2-7.4l-9.6-22.5-9.6 22.5zm24.7-32h9.6v51.3h-9.6zm69 0v51.3h-7.8l-28.3-34.7v34.7h-9.5v-51.3h7.9l28.3 34.8v-34.8zm47 39.5h-25.6l-5.1 11.8h-9.8l23.1-51.3h9.4l23.1 51.3h-10zm-3.1-7.4l-9.7-22.5-9.6 22.5zm70.4 5.4c0 8.8-6.9 13.9-20.1 13.9h-25.5v-51.3h24c12.3 0 18.9 5.2 18.9 13.3 0 5.3-2.6 9.2-6.6 11.3 5.5 1.8 9.3 6.1 9.3 12.8zm-36.1-29.9v14.1h13.5c6.6 0 10.3-2.3 10.3-7 0-4.8-3.7-7.1-10.3-7.1zm26.5 28.9c0-5.1-3.9-7.4-11.1-7.4h-15.4v14.8h15.4c7.2 0 11.1-2.2 11.1-7.4zm19.8-36.4h9.5v43.2h26.8v8.1h-36.3zm82.3 43.3v8h-38.4v-51.3h37.4v8h-27.9v13.3h24.8v7.9h-24.8v14.1zm69.3 8.8l-6.4-6.2c-4.6 3.9-10.5 6.1-17.2 6.1-10.9 0-18.7-5.6-18.7-13.7 0-6.3 3.5-10.8 11.8-15.5-4.1-4.2-5.7-7.5-5.7-11.3 0-7.2 5.9-12.1 14.9-12.1 8.3 0 13.7 4.3 13.7 11.3 0 5.3-3.1 9.1-10.5 13.3l11.1 10.5c1.2-2.4 2.2-5.3 2.9-8.6l7.4 2.4c-1 4.5-2.5 8.4-4.7 11.7l6.5 6.2zm-27.9-40.8c0 2.3 1 4 4.7 7.7 5.9-3.3 7.8-5.4 7.8-8.2 0-2.9-2.1-4.9-5.9-4.9-4.1 0-6.6 2.3-6.6 5.4zm16 29.3l-13.5-12.9c-6 3.3-8 6-8 9.6 0 4.3 4.1 7.2 10.4 7.2 4.2 0 8-1.3 11.1-3.9zm78.7-1.2h-25.7l-5 11.9h-9.9l23.1-51.3h9.4l23.2 51.3h-10zm-3.2-7.5l-9.6-22.4-9.6 22.4zm34.3-24v15.6h24.7v8.1h-24.7v19.7h-9.6v-51.4h37.5v8zm46.7 0v15.6h24.8v8.1h-24.8v19.7h-9.5v-51.4h37.4v8zm32.9 17.7c0-15.2 11.8-26.4 27.7-26.4 15.9 0 27.6 11.2 27.6 26.4 0 15.2-11.7 26.4-27.6 26.4-15.9 0-27.7-11.2-27.7-26.4zm45.7 0c0-10.5-7.7-18-18-18-10.4 0-18.1 7.5-18.1 18 0 10.5 7.7 18 18.1 18 10.3 0 18-7.5 18-18zm53.3 25.7l-10.5-15.1c-0.7 0.1-1.3 0.1-2 0.1h-11.6v15h-9.5v-51.4h21.1c13.5 0 21.9 6.9 21.9 18.3 0 7.8-4 13.5-11 16.2l11.8 16.9zm-12.9-43.3h-11.1v20.5h11.1c8.4 0 12.7-3.9 12.7-10.3 0-6.5-4.3-10.2-12.7-10.2zm33-8.1h22.4c16.6 0 28 10.3 28 25.7 0 15.4-11.4 25.7-28 25.7h-22.4zm21.9 43.2c11.5 0 18.9-7 18.9-17.6 0-10.6-7.4-17.6-18.9-17.6h-12.4v35.2zm71.1-3.8h-25.7l-5 11.9h-9.9l23.1-51.3h9.4l23.2 51.3h-10zm-3.1-7.5l-9.7-22.4-9.6 22.4zm70.4 5.4c0 8.8-6.9 13.9-20.1 13.9h-25.5v-51.3h24c12.3 0 18.9 5.2 18.9 13.4 0 5.2-2.6 9.1-6.6 11.3 5.5 1.7 9.3 6 9.3 12.7zm-36.1-29.9v14.1h13.5c6.6 0 10.3-2.3 10.3-7 0-4.8-3.7-7.1-10.3-7.1zm26.4 29c0-5.2-3.8-7.4-11-7.4h-15.4v14.8h15.4c7.2 0 11-2.3 11-7.4zm19.8-36.5h9.6v43.3h26.8v8h-36.4zm82.4 43.4v7.9h-38.5v-51.3h37.5v8h-27.9v13.4h24.7v7.8h-24.7v14.2zm69.3 0v7.9h-38.5v-51.3h37.5v8h-28v13.4h24.8v7.8h-24.8v14.2zm56.3-43.4v51.3h-7.9l-28.3-34.7v34.7h-9.4v-51.3h7.8l28.3 34.8v-34.8zm52.3 43.4v7.9h-38.5v-51.3h37.4v8h-27.9v13.4h24.8v7.8h-24.8v14.2zm44.2 7.9l-10.5-15c-0.6 0.1-1.3 0.1-1.9 0.1h-11.6v14.9h-9.5v-51.3h21.1c13.4 0 21.8 6.9 21.8 18.3 0 7.8-4 13.5-10.9 16.2l11.8 16.8zm-12.9-43.2h-11.2v20.4h11.2c8.3 0 12.7-3.8 12.7-10.2 0-6.5-4.4-10.2-12.7-10.2zm67.9 17h9v20.5c-5.3 4.3-12.8 6.5-20 6.5-15.9 0-27.7-11.1-27.7-26.4 0-15.3 11.8-26.4 27.8-26.4 8.6 0 15.8 2.9 20.6 8.4l-6 5.8c-4-4-8.7-5.8-14.2-5.8-10.9 0-18.6 7.4-18.6 18 0 10.4 7.7 18 18.6 18 3.6 0 7.2-0.7 10.5-2.6zm43.7 8.1v18.1h-9.5v-17.9l-20.2-33.4h10.2l15 25 15.2-25h9.4zm56.1-25.2v15.6h24.7v8.1h-24.7v19.6h-9.6v-51.3h37.5v8zm32.9 17.7c0-15.2 11.7-26.4 27.6-26.4 16 0 27.7 11.1 27.7 26.4 0 15.2-11.7 26.4-27.7 26.4-15.9 0-27.6-11.3-27.6-26.4zm45.7 0c0-10.5-7.7-18.1-18.1-18.1-10.3 0-18 7.6-18 18.1 0 10.4 7.7 18 18 18 10.4 0 18.1-7.6 18.1-18zm53.3 25.6l-10.5-15c-0.7 0.1-1.3 0.1-2 0.1h-11.6v14.9h-9.5v-51.3h21.1c13.5 0 21.8 6.9 21.8 18.3 0 7.7-3.9 13.4-10.9 16.2l11.8 16.8zm-12.9-43.2h-11.1v20.4h11.1c8.4 0 12.7-3.8 12.7-10.2 0-6.5-4.3-10.2-12.7-10.2zm53.2-8.1h9.5v43.3h26.8v8h-36.3zm43.9 0h9.5v51.3h-9.5zm32.9 8v15.6h24.8v8.1h-24.8v19.6h-9.5v-51.3h37.4v8zm75.7 35.3v8h-38.5v-51.3h37.4v8h-27.9v13.4h24.8v7.8h-24.8v14.1z"/>
	</g>
</svg>